# Blender v2.79 (sub 0) OBJ File: ''
# www.blender.org
mtllib SCP-409.mtl
o Cube
v 0.090585 -1.000000 -0.364961
v 0.291264 -1.000000 0.364961
v -0.194114 -0.958068 0.364961
v -0.504559 -1.000000 -0.364961
v 0.291264 1.000000 -0.364961
v 0.291264 1.000000 0.459657
v -0.103687 1.201534 0.197330
v -0.291264 1.000000 -0.364961
vt 0.000000 0.000000
vt 1.000000 0.000000
vt 1.000000 1.000000
vt 0.000000 1.000000
vt 0.000000 0.000000
vt 1.000000 0.000000
vt 1.000000 1.000000
vt 0.000000 1.000000
vt 1.000000 0.000000
vt 1.000000 1.000000
vt 0.000000 1.000000
vt 0.000000 0.000000
vt 1.000000 0.000000
vt 0.000000 1.000000
vt 0.000000 0.000000
vt 1.000000 0.000000
vt 1.000000 1.000000
vt 1.000000 0.000000
vt 1.000000 1.000000
vt 0.000000 1.000000
vn -0.0387 -0.9984 0.0422
vn 0.2429 0.9548 -0.1716
vn 0.9907 -0.0467 -0.1279
vn -0.2797 0.0229 0.9598
vn -0.9350 0.0822 0.3449
vn 0.0000 0.0000 -1.0000
usemtl Material
s off
f 1/1/1 2/2/1 3/3/1 4/4/1
f 5/5/2 8/6/2 7/7/2 6/8/2
f 1/1/3 5/9/3 6/10/3 2/11/3
f 2/12/4 6/13/4 7/7/4 3/14/4
f 3/15/5 7/16/5 8/17/5 4/4/5
f 5/5/6 1/18/6 4/19/6 8/20/6
